<svg xmlns="http://www.w3.org/2000/svg" xmlns:xlink="http://www.w3.org/1999/xlink" width="387" height="230" viewBox="0 0 387 230">
  <defs>
    <linearGradient id="linear-gradient" x1="0.914" y1="-0.027" x2="-0.109" y2="0.952" gradientUnits="objectBoundingBox">
      <stop offset="0" stop-color="#edcd00"/>
      <stop offset="1" stop-color="#e8b200"/>
    </linearGradient>
    <linearGradient id="linear-gradient-2" x1="1.045" y1="0.023" x2="0.118" y2="0.93" gradientUnits="objectBoundingBox">
      <stop offset="0" stop-color="#edcd00"/>
      <stop offset="1" stop-color="#e8b300"/>
    </linearGradient>
    <linearGradient id="linear-gradient-3" x1="0.907" y1="0.048" x2="0.089" y2="1.01" gradientUnits="objectBoundingBox">
      <stop offset="0" stop-color="#4a4a4a"/>
      <stop offset="1" stop-color="#2d2d2d"/>
    </linearGradient>
    <linearGradient id="linear-gradient-4" x1="0.926" y1="0.068" x2="0.313" y2="1.046" xlink:href="#linear-gradient-3"/>
  </defs>
  <g id="Group_16589" data-name="Group 16589" transform="translate(-350 -707)">
    <rect id="NoPath_-_Copy_12_" data-name="NoPath - Copy (12)" width="387" height="230" rx="6" transform="translate(350 707)" fill="#f9f4d8"/>
    <g id="sp-client-CYMAQ" transform="translate(428.001 792)">
      <path id="Path_4559" data-name="Path 4559" d="M206.1,106.7a75.072,75.072,0,0,1-3.4,7.7,1.3,1.3,0,0,1-1.4.9c-3.9.1-3.9.1-5.5-3.5l-2.1-4.8c-.7.1-.3.6-.3.9,0,4.4,0,8.9.1,13.3,0,.9-.1,1.3-1.2,1.2q-3.75-.15-7.5,0c-.7,0-1-.2-1-1v-27c0-.7.2-.9.9-.9h8.8a1.221,1.221,0,0,1,1.3,1c1.6,3.5,3.3,7.1,5,10.7,1.7-3.6,3.4-7.1,5-10.6a1.541,1.541,0,0,1,1.6-1.1c2.8.1,5.5.1,8.3,0,.9,0,1.1.2,1.1,1.1v26.7c0,.8-.2,1.1-1,1.1q-3.75-.15-7.5,0c-1,0-1.2-.4-1.2-1.2.1-4.6-.1-9.3.2-13.9C206.4,107,206.7,106.7,206.1,106.7Z" transform="translate(-44.131 -78.111)" fill="#222"/>
      <path id="Subtraction_3" data-name="Subtraction 3" d="M25.23,36.385a19.485,19.485,0,0,1-5.387-.849c-.867-.254-1.73-.562-2.564-.86a26.341,26.341,0,0,0-4.637-1.34,8.4,8.4,0,0,0-1.459-.133,6.447,6.447,0,0,0-3.236.829,1.559,1.559,0,0,1-.729.245c-.379,0-.6-.3-.875-.841a21.7,21.7,0,0,0-1.7-3c-.271-.409-.365-.7-.291-.928.082-.257.375-.414.793-.571l.16-.064c.395-.16.889-.358,1.539-.637a11.181,11.181,0,0,1-6.025-6.8,26.741,26.741,0,0,1-.775-8.9,13.328,13.328,0,0,1,.5-3.5A11.182,11.182,0,0,1,4.619,2.51,13.9,13.9,0,0,1,12.443.036C12.9.012,13.348,0,13.777,0a20.415,20.415,0,0,1,4.268.437A11.484,11.484,0,0,1,23.8,3.348a11.393,11.393,0,0,1,3.049,5.688,24.449,24.449,0,0,1,0,11.4,10.785,10.785,0,0,1-7.5,8.3,2.243,2.243,0,0,0-.816.177,3.96,3.96,0,0,1-.381.123l.658.236a18.658,18.658,0,0,0,6.26,1.487,8.727,8.727,0,0,0,1.48-.125.93.93,0,0,1,.182-.019c.33,0,.52.226.52.621v4.4c0,.521-.3.586-.648.662-.051.011-.1.022-.152.035C26.047,36.368,25.639,36.385,25.23,36.385ZM13.545,7.734a3.206,3.206,0,0,0-3.5,2.7,12.08,12.08,0,0,0-.342,3l-.006.141c-.012.349-.023.709-.049,1.062.025.4.037.811.049,1.207L9.7,16a14.171,14.171,0,0,0,.342,3.333,3.286,3.286,0,0,0,3.5,2.4,3.061,3.061,0,0,0,3.4-2.5,19.09,19.09,0,0,0,0-8.9A3.1,3.1,0,0,0,13.545,7.734Z" transform="translate(204.423 14.855)" fill="#222"/>
      <path id="Path_4561" data-name="Path 4561" d="M248.1,122.4H239c-1,0-.9-.7-1-1.2-1.6-6.1-3.1-12.3-4.7-18.4-.1-.4-.1-.8-.5-1.1-1.7,6.5-3.3,12.9-4.9,19.4-.3,1.1-.7,1.4-1.8,1.4-2.5-.1-5,0-7.5,0-.8,0-1-.2-.7-1l9-27a1.086,1.086,0,0,1,1.2-.9h9.6a.991.991,0,0,1,1.1.8c3,9.2,6.1,18.4,9.1,27.5C248.1,122,248.1,122.2,248.1,122.4Z" transform="translate(-44.131 -78.111)" fill="#222"/>
      <path id="Path_4562" data-name="Path 4562" d="M127.1,107.9a18.37,18.37,0,0,1,.5-5.7,10.82,10.82,0,0,1,8.3-8.5,21.058,21.058,0,0,1,14,1.1c.9.4,1.2.8.9,1.7-.4,1.4-.8,2.9-1.1,4.3-.2,1-.5,1.4-1.7.9a11.087,11.087,0,0,0-7.4-.5,4.513,4.513,0,0,0-3.4,3.5,12.634,12.634,0,0,0-.1,5.8A5.52,5.52,0,0,0,142,115a11.493,11.493,0,0,0,6.6-.9c.7-.3,1-.3,1.2.6a46,46,0,0,0,1.3,5c.2.7,0,1-.6,1.3-5.5,2.4-11,2.8-16.5.4-4.7-2-6.4-6.1-6.8-10.9A11.11,11.11,0,0,1,127.1,107.9Z" transform="translate(-44.131 -78.111)" fill="#222"/>
      <path id="Path_4563" data-name="Path 4563" d="M166.9,105.6c.7-4,2.7-7.5,4.3-11.2a1.213,1.213,0,0,1,1.3-.8c2.7,0,5.5.1,8.2,0,1.1,0,1.2.3.7,1.2-3,5.6-6,11.3-9,16.9a5.421,5.421,0,0,0-.6,2.5v7c0,1-.3,1.3-1.3,1.3q-3.75-.15-7.5,0c-.8,0-1.1-.3-1-1.1,0-2-.1-4,0-6a9.376,9.376,0,0,0-1.2-4.9c-2.8-5.2-5.5-10.4-8.2-15.6-.7-1.2-.3-1.4.9-1.3,2.6.1,5.2,0,7.8,0,.6,0,1.1,0,1.4.7C164.1,98,166.2,101.5,166.9,105.6Z" transform="translate(-44.131 -78.111)" fill="#222"/>
      <path id="Path_4564" data-name="Path 4564" d="M64.2,79.6A32.524,32.524,0,0,0,51,88.8a22.6,22.6,0,0,0-2.3,3.1,26.426,26.426,0,0,0-2,3.7,31.214,31.214,0,0,0-1.5,4.3,28.942,28.942,0,0,0,.1,16,83.937,83.937,0,0,0,6.1-7.9c.8-1.1,1.5-2.3,2.2-3.5.8-1.4,1.6-2.8,2.3-4.2.6-1.1,1.2-2.3,1.7-3.4.6-1.3,1.2-2.5,1.7-3.8h0A108.327,108.327,0,0,0,64.2,79.6Z" transform="translate(-44.131 -78.111)" fill="url(#linear-gradient)"/>
      <path id="Path_4565" data-name="Path 4565" d="M77.4,78.3a33.7,33.7,0,0,0-7.1,0,1.077,1.077,0,0,0-1,.8c-1.5,5.4-3.4,10.6-5.4,15.8-.4,1-.9,1.9-1.3,2.9-.4.9-.8,1.7-1.2,2.6-.5.9-.9,1.7-1.4,2.6h0c-.4.8-.8,1.5-1.2,2.3a21.157,21.157,0,0,1-1.2,2c-.6,1.1-1.3,2.1-2,3.2a77.018,77.018,0,0,1-8.1,10,.942.942,0,0,0-.2,1.2,31.07,31.07,0,0,0,9.9,11.1c.5.3.8.4,1.2-.1a68.638,68.638,0,0,0,9.8-16.2,22.656,22.656,0,0,0,1.2-2.6h0c.7-1.5.7-1.9,1.2-2.9.3-.8.6-1.5.9-2.3.3-.9.6-1.7.9-2.5a25.825,25.825,0,0,0,.8-2.6c.3-1,.4-1.3.7-2.4a1.034,1.034,0,0,0,.1-.4,1,1,0,0,0,.1-.4,136.908,136.908,0,0,0,4.1-21.2C78.3,78.5,78,78.4,77.4,78.3Z" transform="translate(-44.131 -78.111)" fill="url(#linear-gradient-2)"/>
      <path id="Path_4566" data-name="Path 4566" d="M103.8,106.1a4.869,4.869,0,0,0-.1-1.2c0-.2,0-.3-.1-.4-.1-.5-.1-1-.2-1.6a24.375,24.375,0,0,0-.6-2.6c-.2-.8-.5-1.6-.7-2.3a14.467,14.467,0,0,0-1-2.5c-.4-.9-.9-1.7-1.4-2.6-.6-1-1.3-1.9-2-2.9a16.022,16.022,0,0,0-3.1-3.3v15.6c-.1,1.2-.2,2.3-.3,3.4v.3c-.1,1-.2,1.9-.3,2.9s-.3,2.1-.4,3.1c-.5,2.6-.9,5.2-1.5,7.8a78.25,78.25,0,0,1-4.7,14.4c.3.3.4.1.6,0a26.655,26.655,0,0,0,8.9-7.1,30.789,30.789,0,0,0,6.6-15.1,31.629,31.629,0,0,0,.3-3.2A12.188,12.188,0,0,0,103.8,106.1Z" transform="translate(-44.131 -78.111)" fill="url(#linear-gradient-3)"/>
      <path id="Path_4567" data-name="Path 4567" d="M90,98V84.2c0-1.6-.9-2-1.9-2.7a39.073,39.073,0,0,0-5.2-2.3c-.1.9-.2,1.8-.3,2.6s-.2,1.5-.3,2.3-.2,1.5-.3,2.3c-.1.6-.2,1.1-.3,1.7-.2.9-.3,1.7-.5,2.6l-.3,1.5c-.2,1-.4,1.9-.6,2.9-.2.9-.5,1.9-.7,2.8-.2.7-.3,1.4-.5,2-.2.9-.5,1.7-.6,2.3-.2.7-.3,1.1-.6,2a10.927,10.927,0,0,0-.5,1.7c-.2.8-.5,1.4-.8,2.3-.2.7-.5,1.3-.7,2s-.5,1.3-.7,2c-.1.2-.5,1.3-.6,1.5a79.268,79.268,0,0,1-11.8,20.8c-.6.8-.3,1,.4,1.2A30.027,30.027,0,0,0,80,137.2a1.987,1.987,0,0,0,1.6-1.2,72.7,72.7,0,0,0,3.3-7.6,78.656,78.656,0,0,0,3.8-15.2,13.805,13.805,0,0,0,.3-2h0a15.172,15.172,0,0,0,.3-2.1c.2-1.1.2-1.7.3-2.6a17.853,17.853,0,0,0,.2-2.3,9.151,9.151,0,0,1,.1-1.6v-.2C89.9,100.8,90,99.5,90,98Z" transform="translate(-44.131 -78.111)" fill="url(#linear-gradient-4)"/>
      <path id="Path_4568" data-name="Path 4568" d="M193.4,107.9c-.3-.3-.2-.7-.2-1.1,0-.2,0-.4.2-.4.3,0,.3.3.3.5C193.3,107.2,193.5,107.6,193.4,107.9Z" transform="translate(-44.131 -78.111)" fill="#bdbdbd"/>
      <path id="Path_4569" data-name="Path 4569" d="M206.1,106.7c0-.2.2-.6.3-.5.4.3.1.7-.1,1.1A1.421,1.421,0,0,0,206.1,106.7Z" transform="translate(-44.131 -78.111)" fill="#b9b9b9"/>
    </g>
  </g>
</svg>
