<svg id="arrow-left" xmlns="http://www.w3.org/2000/svg" width="12.948" height="10.292" viewBox="0 0 12.948 10.292">
  <path id="Path_757" data-name="Path 757" d="M17.73,23a.5.5,0,0,0-.5-.5L5.42,22.508a.5.5,0,0,0,0,1L17.233,23.5A.5.5,0,0,0,17.73,23Z" transform="translate(-4.922 -17.852)" fill="#332f84" fill-rule="evenodd"/>
  <path id="Path_758" data-name="Path 758" d="M4.646,8.646a.5.5,0,0,0,0,.7l4.289,4.3-4.289,4.3a.5.5,0,1,0,.7.7L9.99,14a.5.5,0,0,0,0-.7L5.35,8.646A.5.5,0,0,0,4.646,8.646Z" transform="translate(2.813 -8.5)" fill="#332f84" fill-rule="evenodd"/>
</svg>
