<svg xmlns="http://www.w3.org/2000/svg" width="147.778" height="29.104" viewBox="0 0 147.778 29.104">
  <g id="sp-client-Sabadell_1_" data-name="sp-client-Sabadell (1)" style="mix-blend-mode: luminosity;isolation: isolate">
    <g id="Group_16215" data-name="Group 16215" transform="translate(0 0)">
      <path id="Path_4507" data-name="Path 4507" d="M49.5,100.1A9.5,9.5,0,1,0,40,90.537h0a9.524,9.524,0,0,0,9.5,9.559" transform="translate(-40 -81.1)" fill="#0082ca"/>
      <path id="Path_4508" data-name="Path 4508" d="M51.692,94.319h1.644a2.2,2.2,0,0,1,1.1.183,1.132,1.132,0,0,1,.548.913,1.271,1.271,0,0,1-.487.974,2.2,2.2,0,0,1-1.218.244H51.753l-.061-2.314Zm0-3.714h1.34a3.058,3.058,0,0,1,1.279.122.818.818,0,0,1,.426.852,1.367,1.367,0,0,1-.365.852,1.875,1.875,0,0,1-1.157.183H51.692V90.6ZM49.5,88.9v9.5h4.262a4.194,4.194,0,0,0,2.435-.487,2.673,2.673,0,0,0,1.157-2.07,2.421,2.421,0,0,0-1.948-2.375h0a2.14,2.14,0,0,0,1.766-2.07,2.375,2.375,0,0,0-1.157-2.07,3.382,3.382,0,0,0-2.192-.365Z" transform="translate(-43.716 -84.151)" fill="#fff"/>
      <path id="Path_4509" data-name="Path 4509" d="M195.778,112.624h5.182V88.7h-5.182Zm-7.773,0h5.243V88.7h-5.243v23.928ZM174.064,101.6c.185-2.009,1.11-3.714,3.331-3.714s2.9,1.827,3.023,3.714Zm11.6,3.044a11.051,11.051,0,0,0-1.851-6.941,8.491,8.491,0,0,0-6.6-3.166c-5.552,0-8.76,4.2-8.76,9.5s3.516,9.011,8.883,9.011a8.16,8.16,0,0,0,8.2-6.15l-4.812-.365a3.065,3.065,0,0,1-3.208,2.8c-2.282,0-3.454-1.766-3.454-3.836v-.913h11.6Zm-24.3.609a6.167,6.167,0,0,1-.432,2.618,2.715,2.715,0,0,1-2.282,1.461c-2.591,0-2.838-3.288-2.838-5.175,0-2.131.123-5.967,3.084-5.967,2.406,0,2.529,2.923,2.529,4.688C161.357,102.822,161.357,105.257,161.357,105.257Zm5.182,7.367V88.7h-5.182v8.1a4.9,4.9,0,0,0-4.5-2.253c-5.243,0-6.6,5.236-6.6,9.437s1.419,9.072,6.477,9.072a5.206,5.206,0,0,0,4.812-3.105h.062v2.8Zm-23.564-7.733a5.974,5.974,0,0,1-.679,3.41,3.036,3.036,0,0,1-2.591,1.461,2.278,2.278,0,0,1-2.344-2.009v-.365c0-2.557,3.64-3.044,5.613-3.288v.792Zm5.675,7.733a7.687,7.687,0,0,1-.37-2.618v-8.281c0-2.131.185-4.079-1.666-5.541a9.946,9.946,0,0,0-5.675-1.644c-3.825,0-8.019,1.218-8.574,5.541l4.935.426c0-1.766,1.48-2.557,3.146-2.557a2.639,2.639,0,0,1,2.1.852,3.922,3.922,0,0,1,.432,2.375v.365c-2.221.244-5.058.365-7.094,1.1-2.406.852-4.071,2.618-4.071,5.3,0,3.349,2.529,5.054,5.613,5.054,2.653,0,4.195-1.035,5.737-3.105a10.767,10.767,0,0,0,.247,2.8Zm-34.359,0h2.838a8.993,8.993,0,0,1,1.172-2.74c1.3,2.131,2.591,3.105,5.12,3.105,5.428,0,7.279-4.566,7.279-9.194,0-4.14-1.542-9.194-6.724-9.194a4.56,4.56,0,0,0-4.38,2.557h-.062V88.7h-5.182l-.062,23.928Zm5.305-9.985c0-1.887.37-4.566,2.838-4.566,2.838,0,2.838,3.714,2.838,5.662,0,2.009,0,5.6-2.961,5.6a2.47,2.47,0,0,1-2.221-1.218,6.187,6.187,0,0,1-.617-2.983l.123-2.5Zm-13.448,2.192a5.974,5.974,0,0,1-.679,3.41,3.036,3.036,0,0,1-2.591,1.461,2.179,2.179,0,0,1-2.282-2.009v-.365c0-2.557,3.64-3.044,5.613-3.288l-.062.792Zm5.613,7.793a7.687,7.687,0,0,1-.37-2.618v-8.281c0-2.131.185-4.079-1.666-5.541a9.946,9.946,0,0,0-5.675-1.644c-3.825,0-8.019,1.218-8.574,5.541l4.935.426c0-1.766,1.48-2.557,3.146-2.557a2.639,2.639,0,0,1,2.1.852,3.922,3.922,0,0,1,.432,2.375v.365c-2.221.244-5.058.365-7.094,1.1-2.406.852-4.071,2.618-4.071,5.3,0,3.349,2.467,5.054,5.613,5.054,2.653,0,4.195-1.035,5.737-3.105a10.766,10.766,0,0,0,.247,2.8ZM93.008,93.993c-1.48-4.14-4.935-5.6-9.253-5.6a9.171,9.171,0,0,0-6.107,1.948,6.858,6.858,0,0,0-2.591,5.6c0,5.236,4.195,6.515,8.574,7.367,1.48.365,4.195.67,4.195,2.679s-2.159,2.557-3.825,2.557c-2.529,0-4.38-.913-5.058-3.349L73.7,106.353c1.11,4.688,5.243,6.637,9.808,6.637,2.467,0,5.12-.426,7.032-1.948a7.732,7.732,0,0,0,3.023-6.028,6.541,6.541,0,0,0-3.208-5.662,19.471,19.471,0,0,0-6.292-2.009c-1.419-.244-3.516-.67-3.516-2.435s1.851-2.253,3.331-2.253c2.159,0,3.454.792,4.133,2.8l5-1.461Z" transform="translate(-53.181 -83.947)" fill="#231f20"/>
    </g>
  </g>
</svg>
