<svg xmlns="http://www.w3.org/2000/svg" width="106.562" height="32.65" viewBox="0 0 106.562 32.65">
  <g id="sp-client-GBI_1_" data-name="sp-client-GBI (1)" style="mix-blend-mode: luminosity;isolation: isolate">
    <g id="Group_16214" data-name="Group 16214" transform="translate(0)">
      <path id="Path_4477" data-name="Path 4477" d="M96.5,101.4v3.1a17.568,17.568,0,0,1-.278,3.1c-.046.324-.139.6-.185.926a.722.722,0,0,0-.556-.88c-.046,0-.139-.046-.185-.046H80.2V101.4Z" transform="translate(-63.852 -88.155)" fill="#6fc598"/>
      <path id="Path_4478" data-name="Path 4478" d="M109.364,72.8a1.226,1.226,0,0,0-1.2,1.2v9.679H102V72.8Z" transform="translate(-75.556 -72.8)" fill="#04966f"/>
      <rect id="Rectangle_213" data-name="Rectangle 213" width="6.206" height="31.816" transform="translate(48.303 0.186)" fill="#04966f"/>
      <path id="Path_4479" data-name="Path 4479" d="M68.711,72.8v6.206H54.864A9.922,9.922,0,0,0,45,88.083,16.273,16.273,0,0,1,61.255,72.846l7.456-.046Z" transform="translate(-44.954 -72.8)" fill="#04966f"/>
      <path id="Path_4480" data-name="Path 4480" d="M64.953,112.38h0l-.37.093h-.139l-.232.046-.185.046c-.324.046-.695.139-1.019.185H60a11.471,11.471,0,0,1-1.25-.139l-.324-.046-.324-.093-.6-.139-.278-.093a16.554,16.554,0,0,1-11.856-11.995l-.139-.556c-.046-.185-.093-.417-.139-.6l-.046-.324c-.046-.232-.046-.463-.093-.695V97.7c0-.232-.046-.556-.046-.834V95.384A9.838,9.838,0,0,1,54.764,86.4h6.391a10.247,10.247,0,0,0-7.178,2.964,2.32,2.32,0,0,0-.324.37c-.139.139-.185.185-.185.232l-.046.046-.139.232-.185.232L53,90.568c-.093.093-.139.185-.185.232a1.877,1.877,0,0,0-.232.417,1.267,1.267,0,0,1-.185.232l-.185.232-.139.278-.139.278h0l-.185.463a4.892,4.892,0,0,0-.278.88.17.17,0,0,1-.046.139c-.046.046-.046.185-.093.324a.5.5,0,0,0-.046.232c0,.046-.046.185-.046.232,0,.093,0,.139-.046.185-.046.093,0,.185-.046.278s0,.139,0,.185c0,.093-.046.278-.046.463v2.13h0v.185l.046.185h0v.278c0,.093.046.139.046.185l.046.232c0,.046.046.139.046.185h0C52.773,106.36,59.581,112.38,64.953,112.38Z" transform="translate(-44.9 -80.101)" fill="#6fc598"/>
      <path id="Path_4481" data-name="Path 4481" d="M84.71,115.35h0a.669.669,0,0,1-.093.324c-.046.139,0,.139-.046.185l-.093.232v.093c-.046.139-.093.232-.139.37s-.093.232-.139.37c-.139.278-.185.556-.324.88a1.012,1.012,0,0,1-.139.232v.046l-.139.232-.093.185-.139.278-.185.37-.185.324-.185.324v.046l-.185.232-.093.139-.139.185a3.249,3.249,0,0,0-.278.417c-.093.139-.185.185-.185.324h0c-.093.139-.185.185-.232.324a.969.969,0,0,0-.185.278l-.093.093c-.093.093-.139.185-.185.232h0l-.232.278-.278.278a5.963,5.963,0,0,1-.787.741l-.139.139-.232.185-.185.185-.139.093a5.784,5.784,0,0,1-.556.417l-.139.093-.232.185-.232.185-.185.139-.185.139c-.463.278-.88.556-1.343.787l-.185.093-.278.185-.324.185-.093.046a3.216,3.216,0,0,1-.6.232l-.37.139-.232.093-.278.093-.324.139-.37.139-.324.093-.185.046-.232.046c-5.418,0-12.226-6.02-13.477-13.338v.046h0a.859.859,0,0,1,.093.324c.046.139.093.185.093.278.046.093.046.139.093.185a10.088,10.088,0,0,0,6.576,6.206.278.278,0,0,0,.185.046.859.859,0,0,0,.324.093l.37.093.37.093.37.046h2.871l.185-.046a2.443,2.443,0,0,0,.556-.139l.232-.046.185-.046h0l.185-.046.185-.046.185-.093.37-.139.185-.093.185-.093.324-.139.185-.139.185-.093.185-.093c.185-.139.37-.185.556-.324.046-.046.093-.046.139-.093l.417-.278.185-.139.185-.139.185-.139.278-.232.046-.046.232-.185.046-.046.232-.232h0l.232-.278.139-.185.139-.185.139-.185.232-.324.139-.185c.046-.046.093-.139.139-.185s.093-.139.139-.185l.185-.278.139-.185c.046-.046.046-.139.093-.185l.185-.37a1.161,1.161,0,0,1,.185-.324h0l.093-.185.093-.185c.046-.139.093-.232.139-.37s.046-.139.093-.185h5.465a.773.773,0,0,1,.695.834C84.71,115.258,84.71,115.3,84.71,115.35Z" transform="translate(-52.524 -94.973)" fill="#04966f"/>
      <path id="Path_4482" data-name="Path 4482" d="M127.7,82.525a9.463,9.463,0,0,1-1.714,5.511,8.347,8.347,0,0,1-1.2,1.389,9.4,9.4,0,0,1-6.9,2.825h-.556a17.184,17.184,0,0,0,.232-3.1v-3.1h.509a3.579,3.579,0,0,0,2.5-1.019,3.69,3.69,0,0,0,1.019-2.547,3.519,3.519,0,0,0-3.612-3.427H115.2V74a1.226,1.226,0,0,1,1.2-1.2h1.389A9.823,9.823,0,0,1,127.7,82.525Z" transform="translate(-82.643 -72.799)" fill="#6fc598"/>
      <path id="Path_4483" data-name="Path 4483" d="M123.468,113.2a9.507,9.507,0,0,1-9.494,9.494H103.6a19.032,19.032,0,0,0,5.789-6.206h4.585a3.288,3.288,0,1,0,0-6.576h-2.223a9.859,9.859,0,0,0,6.9-2.825,8.648,8.648,0,0,0,1.2-1.389A9.7,9.7,0,0,1,123.468,113.2Z" transform="translate(-76.415 -90.463)" fill="#04966f"/>
      <path id="Path_4484" data-name="Path 4484" d="M177.472,82.416h-1.065a5.128,5.128,0,0,1-.093-.88,1.745,1.745,0,0,1-1.76.973c-1.9,0-2.454-1.76-2.454-4.446v-.37c0-3.057,1.019-4.492,2.871-4.492a2.31,2.31,0,0,1,2.454,2.547h-1.343a1.221,1.221,0,0,0-1.2-1.389c-1.065,0-1.436,1.343-1.436,3.334v.417c0,2.038.278,3.334,1.343,3.334.973,0,1.25-.787,1.25-2.316v-.556h-1.3v-1.2h2.686Z" transform="translate(-113.192 -73.014)" fill="#515449"/>
      <path id="Path_4485" data-name="Path 4485" d="M188.743,78.548v4.029H187.4V73.5h2.547a2.175,2.175,0,0,1,2.455,2.362v.046c0,1.3-.648,1.9-1.2,2.038.741.324,1.019.926,1.019,2.269v.324a13.735,13.735,0,0,0,.139,1.945h-1.3a9.375,9.375,0,0,1-.185-1.991v-.278c0-1.25-.232-1.714-1.343-1.714Zm0-1.111h.88c1.019,0,1.389-.509,1.389-1.482h0c0-.834-.371-1.343-1.25-1.343h-1.019v2.825Z" transform="translate(-121.406 -73.175)" fill="#515449"/>
      <path id="Path_4486" data-name="Path 4486" d="M205.514,78.409h-2.871v3.01h3.242l-.185,1.2h-4.4V73.5h4.353v1.2h-3.01v2.454h2.871Z" transform="translate(-128.869 -73.175)" fill="#515449"/>
      <path id="Path_4487" data-name="Path 4487" d="M217.914,78.409h-2.871v3.01h3.242l-.185,1.2h-4.4V73.5h4.353v1.2h-3.01v2.454h2.871Z" transform="translate(-135.526 -73.175)" fill="#515449"/>
      <path id="Path_4488" data-name="Path 4488" d="M226.2,82.577V73.5h1.575c1.945,5.141,2.408,6.391,2.5,6.854h0c-.093-1.2-.093-2.5-.093-3.983V73.5h1.25v9.031H229.9c-2.038-5.465-2.454-6.715-2.593-7.132h0c.093,1.111.093,2.5.093,4.122v3.01A10.468,10.468,0,0,1,226.2,82.577Z" transform="translate(-142.237 -73.175)" fill="#515449"/>
      <path id="Path_4489" data-name="Path 4489" d="M172.746,98h2.547a2.106,2.106,0,0,1,2.316,2.269h0c0,1.2-.509,1.714-1.065,1.9a2.086,2.086,0,0,1,1.3,2.223v.046a2.437,2.437,0,0,1-2.223,2.64H172.7L172.746,98Zm2.177,3.659c1.019,0,1.343-.417,1.343-1.25v-.046a1.107,1.107,0,0,0-.973-1.25h-1.25V101.7Zm-.834,4.307h1.019c.88,0,1.389-.509,1.389-1.575v-.046a1.412,1.412,0,0,0-1.575-1.621h-.88l.046,3.242Z" transform="translate(-113.514 -86.329)" fill="#515449"/>
      <path id="Path_4490" data-name="Path 4490" d="M187.936,98v6.345c0,.834.232,1.714,1.25,1.714s1.25-.741,1.25-1.714V98h1.343v6.345c0,1.575-.6,2.825-2.686,2.825-1.991,0-2.593-1.2-2.593-2.825V98Z" transform="translate(-120.923 -86.329)" fill="#515449"/>
      <path id="Path_4491" data-name="Path 4491" d="M203.143,98v9.077H201.8V98Z" transform="translate(-129.137 -86.329)" fill="#515449"/>
      <path id="Path_4492" data-name="Path 4492" d="M208.646,98h1.343v7.873h3.057l-.185,1.2H208.6L208.646,98Z" transform="translate(-132.788 -86.329)" fill="#515449"/>
      <path id="Path_4493" data-name="Path 4493" d="M220.5,98h2.177c2.223,0,3.057,1.436,3.057,4.168v.278c0,2.918-.834,4.585-3.2,4.585H220.5V98Zm1.343,7.873h.648c1.389,0,1.852-1.065,1.852-3.381v-.324c0-2.084-.463-3.01-1.852-3.01h-.648Z" transform="translate(-139.177 -86.329)" fill="#515449"/>
      <path id="Path_4494" data-name="Path 4494" d="M236.543,98v9.077H235.2V98Z" transform="translate(-147.069 -86.329)" fill="#515449"/>
      <path id="Path_4495" data-name="Path 4495" d="M242.1,107.031V98h1.575c1.945,5.141,2.408,6.391,2.547,6.854h0c-.093-1.2-.093-2.5-.093-3.983V98h1.25v9.077h-1.528c-2.038-5.465-2.454-6.715-2.593-7.132h0c.093,1.111.093,2.5.093,4.122v3.01A11.286,11.286,0,0,0,242.1,107.031Z" transform="translate(-150.774 -86.329)" fill="#515449"/>
      <path id="Path_4496" data-name="Path 4496" d="M262.126,106.816h-1.019a5.128,5.128,0,0,1-.093-.88,1.745,1.745,0,0,1-1.76.973c-1.9,0-2.454-1.76-2.454-4.446v-.37c0-3.057,1.019-4.492,2.871-4.492a2.31,2.31,0,0,1,2.454,2.547h-1.343a1.221,1.221,0,0,0-1.2-1.389c-1.111,0-1.482,1.343-1.482,3.334v.417c0,2.038.278,3.288,1.343,3.288.973,0,1.25-.787,1.25-2.316v-.6h-1.3v-1.2h2.686Z" transform="translate(-158.666 -86.114)" fill="#515449"/>
      <path id="Path_4497" data-name="Path 4497" d="M174.143,122.4v9.077H172.8V122.4Z" transform="translate(-113.568 -99.429)" fill="#515449"/>
      <path id="Path_4498" data-name="Path 4498" d="M179.7,131.377V122.3h1.575c1.945,5.141,2.408,6.391,2.5,6.854h0c-.093-1.158-.093-2.5-.093-3.983V122.3h1.25v9.077H183.4c-2.038-5.465-2.454-6.715-2.593-7.132h0c.093,1.111.093,2.5.093,4.122v3.01Z" transform="translate(-117.272 -99.375)" fill="#515449"/>
      <path id="Path_4499" data-name="Path 4499" d="M196.342,122.4v9.077H195V122.4Z" transform="translate(-125.485 -99.429)" fill="#515449"/>
      <path id="Path_4500" data-name="Path 4500" d="M202.145,123.5H200.2v-1.2h5.187v1.2h-1.945v7.873H202.1l.046-7.873Z" transform="translate(-128.278 -99.376)" fill="#515449"/>
      <path id="Path_4501" data-name="Path 4501" d="M215.143,122.4v9.077H213.8V122.4Z" transform="translate(-135.58 -99.429)" fill="#515449"/>
      <path id="Path_4502" data-name="Path 4502" d="M221.052,128.83l-.509,2.547H219.2l2.084-9.077h1.76l2.13,9.077h-1.436l-.509-2.547Zm1.852-1.111c-.417-1.945-.695-3.288-.834-4.075h-.046c-.139.834-.417,2.316-.787,4.075Z" transform="translate(-138.479 -99.376)" fill="#515449"/>
      <path id="Path_4503" data-name="Path 4503" d="M233.045,123.5H231.1v-1.2h5.187v1.2h-1.945v7.873H233l.046-7.873Z" transform="translate(-144.868 -99.376)" fill="#515449"/>
      <path id="Path_4504" data-name="Path 4504" d="M246.043,122.4v9.077H244.7V122.4Z" transform="translate(-152.17 -99.429)" fill="#515449"/>
      <path id="Path_4505" data-name="Path 4505" d="M252.177,131.377,250,122.3h1.482l.88,4.029c.278,1.25.509,2.686.648,3.612h0c.139-.88.509-2.316.741-3.566l.88-4.075h1.436l-2.269,9.077Z" transform="translate(-155.015 -99.376)" fill="#515449"/>
      <path id="Path_4506" data-name="Path 4506" d="M269.361,127.263h-2.871v3.01h3.2l-.185,1.2h-4.4V122.4h4.353v1.2h-3.01v2.5h2.871Z" transform="translate(-163.122 -99.429)" fill="#515449"/>
    </g>
  </g>
</svg>
