<svg xmlns="http://www.w3.org/2000/svg" xmlns:xlink="http://www.w3.org/1999/xlink" width="136.159" height="24.421" viewBox="0 0 136.159 24.421">
  <defs>
    <clipPath id="clip-path">
      <rect id="Rectangle_46" data-name="Rectangle 46" width="136.158" height="24.421" transform="translate(0 0)" fill="#939393"/>
    </clipPath>
  </defs>
  <g id="ms-sony-contained" clip-path="url(#clip-path)">
    <path id="Path_437" data-name="Path 437" d="M62.514,31.077C57.6,31.077,53.041,29.6,50,26.871a10.268,10.268,0,0,1-3.4-7.754A10.421,10.421,0,0,1,50,11.391C52.824,8.814,57.815,7.2,62.514,7.2c5.2,0,9.362,1.31,12.544,4.2a10.311,10.311,0,0,1,3.358,7.72,10.751,10.751,0,0,1-3.358,7.753c-2.963,2.75-7.619,4.205-12.544,4.205V27.928a9.439,9.439,0,0,0,6.715-2.581,8.35,8.35,0,0,0,2.459-6.229,8.668,8.668,0,0,0-2.459-6.242,10.087,10.087,0,0,0-13.442,0,8.708,8.708,0,0,0-2.453,6.242,8.726,8.726,0,0,0,2.453,6.229,9.552,9.552,0,0,0,6.726,2.581v3.149ZM26.608,7.212a20.6,20.6,0,0,0-8.15,1.624C16.117,9.881,14.2,11.571,14.2,14.371a5.747,5.747,0,0,0,1.559,3.959,8.686,8.686,0,0,0,4.65,2.324c1.283.28,4.025.711,6.756,1,2.711.286,5.378.558,6.465.833.863.22,2.313.519,2.313,2.146a2.431,2.431,0,0,1-1.793,2.222,13.479,13.479,0,0,1-5.392.946,22.87,22.87,0,0,1-6.422-1.113,7.748,7.748,0,0,1-3.72-2.484,4.273,4.273,0,0,1-.771-2.357H14.862V30.2h3.314V29.07a.473.473,0,0,1,.717-.406,26.155,26.155,0,0,0,4.849,1.567,20.714,20.714,0,0,0,5.031.626,21.577,21.577,0,0,0,6.744-.951,11.8,11.8,0,0,0,4-1.979,5.486,5.486,0,0,0,2.146-4.4,6.152,6.152,0,0,0-1.734-4.324,7.571,7.571,0,0,0-2.148-1.459,15.772,15.772,0,0,0-2.637-.922c-1.708-.419-5.571-.937-7.418-1.13a51.341,51.341,0,0,1-6.639-.9,1.6,1.6,0,0,1-1.236-1.484,2.043,2.043,0,0,1,1.129-1.735,13,13,0,0,1,6.1-1.209,17.672,17.672,0,0,1,7.067,1.38,7.768,7.768,0,0,1,1.682,1,5.058,5.058,0,0,1,1.657,2.773h2.677V8.255H37.178V9.1c0,.273-.282.627-.815.334a22.7,22.7,0,0,0-9.756-2.222Zm65.5,1.322,14.58,13.158-.15-8.859c-.015-1.162-.229-1.647-1.485-1.647h-2.741V8.536H114.78v2.65h-2.674c-1.282,0-1.362.41-1.378,1.647l.226,16.928h-4.269L89.891,14.772l0,10.637c.015,1.156.069,1.7,1.26,1.7h2.994V29.76H81.906V27.111h2.862c1.069,0,1.027-1.019,1.027-1.761V12.933c0-.8-.112-1.746-1.791-1.746H81.681V8.534Zm36.917,18.572a5.743,5.743,0,0,0,.738-.046.915.915,0,0,0,.574-.509,2.957,2.957,0,0,0,.057-.574l0-4.188c0-.1-.007-.144-.178-.369-.188-.245-7.637-8.687-7.978-9.059a3.124,3.124,0,0,0-2.3-1.175h-2.591V8.535h14.62v2.648h-1.763c-.408,0-.679.387-.33.816,0,0,4.919,5.884,4.965,5.945s.085.078.148.02,5.043-5.912,5.082-5.958a.511.511,0,0,0-.436-.821h-1.807V8.535h11.981v2.651h-2.677a2.279,2.279,0,0,0-2.1,1.006c-.334.378-7.863,8.971-8.068,9.2a.565.565,0,0,0-.1.392v4.188a2.96,2.96,0,0,0,.057.573.914.914,0,0,0,.575.509,5.57,5.57,0,0,0,.73.046h2.738v2.651H126.431V27.1l2.6,0Z" transform="translate(-13.928 -6.928)" fill="#939393"/>
  </g>
</svg>
