<svg xmlns="http://www.w3.org/2000/svg" width="113.078" height="39.462" viewBox="0 0 113.078 39.462">
  <g id="sp-client-Boats_1_" data-name="sp-client-Boats (1)" style="mix-blend-mode: luminosity;isolation: isolate">
    <g id="Group_16216" data-name="Group 16216" transform="translate(0 0)">
      <path id="Path_4510" data-name="Path 4510" d="M72.479,84.994a3.71,3.71,0,0,0-2.655-4.572,2.862,2.862,0,0,0-.934-.147H59.4L61.466,72.9H54.829l-2.065,7.424-1.524,5.6L47.995,97.777,47.7,98.908H68.644l.1-.246.2-.885,3.245-11.849ZM65.35,87.01l-2.458,8.85a2.479,2.479,0,0,1-2.409,1.819h-5.9l3.2-11.849h6.637a.959.959,0,0,1,.934.885C65.4,86.813,65.35,86.912,65.35,87.01Z" transform="translate(-46.373 -72.9)" fill="#808386"/>
      <path id="Path_4511" data-name="Path 4511" d="M45,133.922H60.634a6.775,6.775,0,0,0,4.474-1.622H45.442Z" transform="translate(-45 -103.096)" fill="#808386"/>
      <path id="Path_4512" data-name="Path 4512" d="M46.4,128.875H66.7a5.766,5.766,0,0,0,.934-1.475H46.793Z" transform="translate(-45.712 -100.605)" fill="#808386"/>
      <path id="Path_4513" data-name="Path 4513" d="M199.1,133.922h6.539l.442-1.622H195.9A3.957,3.957,0,0,0,199.1,133.922Z" transform="translate(-121.711 -103.096)" fill="#808386"/>
      <path id="Path_4514" data-name="Path 4514" d="M194.485,128.875H205.4l.393-1.475h-11.6A2.944,2.944,0,0,0,194.485,128.875Z" transform="translate(-120.837 -100.605)" fill="#808386"/>
      <path id="Path_4515" data-name="Path 4515" d="M201.427,96.7l2.95-10.816h5.211l1.524-5.6H205.9l2.065-7.375h-6.588l-2.065,7.375h-3.147l-1.524,5.6h3.1l-3.491,12.734a.509.509,0,0,1-.049.2h11.849l.295-1.131h-4.179a.819.819,0,0,1-.836-.787C201.378,96.892,201.378,96.794,201.427,96.7Z" transform="translate(-120.847 -72.9)" fill="#808386"/>
      <path id="Path_4516" data-name="Path 4516" d="M99.15,133.922h10.374A6.775,6.775,0,0,0,114,132.3H96.2A3.577,3.577,0,0,0,99.15,133.922Z" transform="translate(-71.028 -103.096)" fill="#808386"/>
      <path id="Path_4517" data-name="Path 4517" d="M119.79,92.62a3.71,3.71,0,0,0-2.655-4.572,3.087,3.087,0,0,0-.934-.147H105.582a6.213,6.213,0,0,0-6.047,4.621L95.7,106.484H116l.1-.246.2-.885L119.545,93.5Zm-7.129,2.016-2.655,9.636a1.465,1.465,0,0,1-1.327,1.032h-4.966a.924.924,0,0,1-.934-.885.368.368,0,0,1,.049-.246l2.753-10.029a.9.9,0,0,1,.885-.688h5.408a.924.924,0,0,1,.885.934c-.1.049-.1.148-.1.246Z" transform="translate(-70.774 -80.525)" fill="#808386"/>
      <path id="Path_4518" data-name="Path 4518" d="M95.278,128.875H114.4a5.766,5.766,0,0,0,.934-1.475H95.18A4.758,4.758,0,0,0,95.278,128.875Z" transform="translate(-70.5 -100.605)" fill="#808386"/>
      <path id="Path_4519" data-name="Path 4519" d="M222.5,133.922h14.7a6.775,6.775,0,0,0,4.474-1.622H222.992Z" transform="translate(-135.233 -103.096)" fill="#808386"/>
      <path id="Path_4520" data-name="Path 4520" d="M224,128.875h19.371a5.767,5.767,0,0,0,.934-1.475H224.393Z" transform="translate(-135.996 -100.605)" fill="#808386"/>
      <path id="Path_4521" data-name="Path 4521" d="M234.5,94.144a.944.944,0,0,1,.885-.688h12.881l1.524-5.556H234.545a6.269,6.269,0,0,0-6.047,4.621l-1.622,5.851a3.1,3.1,0,0,0,2.114,3.786,2.3,2.3,0,0,0,.836.148h9.489a.493.493,0,0,1,.492.492v.147l-.393,1.327a1.465,1.465,0,0,1-1.327,1.032H225.695l-.295,1.131h20.01c.049-.1.049-.2.1-.246l1.475-5.408A3.1,3.1,0,0,0,244.869,97a2.3,2.3,0,0,0-.836-.147h-9.489a.6.6,0,0,1-.59-.59.3.3,0,0,1,.049-.2Z" transform="translate(-136.708 -80.525)" fill="#808386"/>
      <path id="Path_4522" data-name="Path 4522" d="M144.5,132.3a4.635,4.635,0,0,0,3.54,1.622H150.6a9.91,9.91,0,0,0,4.916-1.622Z" transform="translate(-95.582 -103.096)" fill="#808386"/>
      <path id="Path_4523" data-name="Path 4523" d="M167.5,133.922h6.391l.442-1.622h-6.342Z" transform="translate(-107.274 -103.096)" fill="#808386"/>
      <path id="Path_4524" data-name="Path 4524" d="M142.842,128.875h19.027l.393-1.475H142.4A3.688,3.688,0,0,0,142.842,128.875Z" transform="translate(-94.514 -100.605)" fill="#808386"/>
      <path id="Path_4525" data-name="Path 4525" d="M144.855,96.456l-2.458,9a7.055,7.055,0,0,0-.2,1.082h20.157l.295-1.131,3.294-11.849L167.47,88h-11.5A11.521,11.521,0,0,0,144.855,96.456Zm14.012-2.507a.413.413,0,0,1,.344.492v.049L157,102.848a.985.985,0,0,1-.492.59l-2.409,1.229a6.638,6.638,0,0,1-3.048.737,1.427,1.427,0,0,1-1.426-1.426,1.083,1.083,0,0,1,.049-.393l1.819-6.637a4.555,4.555,0,0,1,5.064-3.294Z" transform="translate(-94.412 -80.576)" fill="#808386"/>
      <path id="Path_4526" data-name="Path 4526" d="M229.393,144.4a1.565,1.565,0,0,0,1.278,1.327,1.4,1.4,0,0,0,1.18-.295.211.211,0,0,1,.344.049c.049.049.049.1.049.2v1.032c0,.1-.049.2-.147.2a2.914,2.914,0,0,1-2.507-5.261,2.828,2.828,0,0,1,1.278-.246,3.423,3.423,0,0,1,1.229.246.263.263,0,0,1,.147.2v1.032a.225.225,0,0,1-.2.246.3.3,0,0,1-.2-.049,1.487,1.487,0,0,0-2.114.2,1.368,1.368,0,0,0-.344,1.131Z" transform="translate(-137.996 -107.722)" fill="#ef7027"/>
      <circle id="Ellipse_1973" data-name="Ellipse 1973" cx="0.885" cy="0.885" r="0.885" transform="translate(87.414 37.66)" fill="#ef7027"/>
      <path id="Path_4527" data-name="Path 4527" d="M241.5,141.3a2.906,2.906,0,0,0-2.9,2.9,2.938,2.938,0,0,0,2.9,2.9,2.906,2.906,0,0,0,2.9-2.9h0a2.875,2.875,0,0,0-2.9-2.9Zm0,4.376a1.524,1.524,0,1,1,1.524-1.524,1.5,1.5,0,0,1-1.524,1.524Z" transform="translate(-143.418 -107.672)" fill="#ef7027"/>
      <path id="Path_4528" data-name="Path 4528" d="M256.311,141.974l-1.082,2.114-1.082-2.114a.882.882,0,0,0-1.18-.393.928.928,0,0,0-.492.639l-.787,4.671c-.049.147.1.246.2.295h.934a.18.18,0,0,0,.2-.2l.541-2.95,1.327,2.655a.329.329,0,0,0,.393.148l.148-.148,1.327-2.655.541,2.95a.207.207,0,0,0,.2.2h.885a.263.263,0,0,0,.246-.246v-.049l-.787-4.671a.868.868,0,0,0-.983-.737A.987.987,0,0,0,256.311,141.974Z" transform="translate(-150.067 -107.756)" fill="#ef7027"/>
    </g>
  </g>
</svg>
