<svg xmlns="http://www.w3.org/2000/svg" width="15.871" height="12.994" viewBox="0 0 15.871 12.994">
  <g id="XMLID_826_" transform="translate(0 0)">
    <path id="XMLID_827_" d="M15.509,29.6a6.016,6.016,0,0,1-.768.28,3.393,3.393,0,0,0,.691-1.215.256.256,0,0,0-.374-.3,6.041,6.041,0,0,1-1.786.706A3.408,3.408,0,0,0,7.48,31.5a3.476,3.476,0,0,0,.028.44,8.723,8.723,0,0,1-5.987-3.176.256.256,0,0,0-.42.033,3.412,3.412,0,0,0,.349,3.922,2.886,2.886,0,0,1-.456-.2.256.256,0,0,0-.38.218c0,.015,0,.03,0,.046a3.419,3.419,0,0,0,1.668,2.93c-.087-.009-.173-.021-.259-.038a.256.256,0,0,0-.292.33,3.406,3.406,0,0,0,2.5,2.284,6.027,6.027,0,0,1-3.222.92,6.164,6.164,0,0,1-.722-.042.256.256,0,0,0-.168.47,9.188,9.188,0,0,0,4.968,1.456,8.839,8.839,0,0,0,6.848-3.008,9.534,9.534,0,0,0,2.373-6.214c0-.093,0-.188,0-.282a6.623,6.623,0,0,0,1.524-1.615.256.256,0,0,0-.316-.376Z" transform="translate(0.002 -28.097)" fill="#e9e8ff"/>
  </g>
</svg>
