<svg xmlns="http://www.w3.org/2000/svg" width="15.458" height="15.458" viewBox="0 0 15.458 15.458">
  <path id="Path_1085" data-name="Path 1085" d="M9.729,7.41a2.319,2.319,0,1,0,2.319,2.319A2.319,2.319,0,0,0,9.729,7.41Zm0-1.546A3.864,3.864,0,1,1,5.864,9.729,3.864,3.864,0,0,1,9.729,5.864Zm5.024-.193a.966.966,0,1,1-.966-.966A.966.966,0,0,1,14.753,5.671ZM9.729,3.546c-1.912,0-2.224.005-3.114.045a4.2,4.2,0,0,0-1.39.257A2.412,2.412,0,0,0,3.846,5.225a4.193,4.193,0,0,0-.256,1.39c-.04.853-.045,1.152-.045,3.114,0,1.912.005,2.224.045,3.114a4.216,4.216,0,0,0,.256,1.389A2.4,2.4,0,0,0,5.224,15.61a4.208,4.208,0,0,0,1.391.257c.853.04,1.152.045,3.114.045,1.912,0,2.224-.005,3.114-.045a4.224,4.224,0,0,0,1.389-.256,2.258,2.258,0,0,0,.835-.543,2.235,2.235,0,0,0,.544-.835,4.225,4.225,0,0,0,.257-1.391c.04-.853.045-1.152.045-3.114,0-1.912-.005-2.224-.045-3.114a4.207,4.207,0,0,0-.257-1.39,2.25,2.25,0,0,0-.543-.835,2.229,2.229,0,0,0-.835-.544,4.2,4.2,0,0,0-1.39-.256C11.99,3.55,11.691,3.546,9.729,3.546ZM9.729,2c2.1,0,2.362.008,3.186.046a5.694,5.694,0,0,1,1.877.359,3.768,3.768,0,0,1,1.37.891,3.793,3.793,0,0,1,.891,1.37,5.71,5.71,0,0,1,.359,1.877c.036.824.046,1.086.046,3.186s-.008,2.362-.046,3.186a5.714,5.714,0,0,1-.359,1.877,3.946,3.946,0,0,1-2.261,2.261,5.71,5.71,0,0,1-1.877.359c-.824.036-1.086.046-3.186.046s-2.362-.008-3.186-.046a5.714,5.714,0,0,1-1.877-.359,3.946,3.946,0,0,1-2.261-2.261,5.69,5.69,0,0,1-.359-1.877C2.01,12.091,2,11.829,2,9.729s.008-2.362.046-3.186a5.69,5.69,0,0,1,.359-1.877A3.946,3.946,0,0,1,4.667,2.406a5.69,5.69,0,0,1,1.877-.359C7.367,2.01,7.629,2,9.729,2Z" transform="translate(-2 -2)" fill="#e9e8ff"/>
</svg>
