<svg id="In_logo_2" data-name="In logo_2" xmlns="http://www.w3.org/2000/svg" width="15.745" height="15.723" viewBox="0 0 15.745 15.723">
  <path id="Path_756" data-name="Path 756" d="M2.1.183a2.1,2.1,0,1,0,2.1,2.1A2.1,2.1,0,0,0,2.1.183Z" transform="translate(0 -0.183)" fill="#e9e8ff"/>
  <path id="Path_757" data-name="Path 757" d="M7.588,83.531H4.437a.271.271,0,0,0-.271.271v10.14a.271.271,0,0,0,.271.271h3.15a.271.271,0,0,0,.271-.271V83.8A.271.271,0,0,0,7.588,83.531Z" transform="translate(-3.914 -78.491)" fill="#e9e8ff"/>
  <path id="Path_758" data-name="Path 758" d="M95.284,81.557a4.137,4.137,0,0,0-2.784.923v-.533a.271.271,0,0,0-.271-.271H89.206a.271.271,0,0,0-.271.271v10.14a.271.271,0,0,0,.271.271h3.147a.271.271,0,0,0,.271-.271V87.071c0-1.439.265-2.331,1.586-2.331,1.3,0,1.4.958,1.4,2.417v4.931a.271.271,0,0,0,.272.271H99.03a.271.271,0,0,0,.271-.271V86.525C99.3,84.212,98.845,81.557,95.284,81.557Z" transform="translate(-83.557 -76.636)" fill="#e9e8ff"/>
</svg>
