<svg id="Group_16065" data-name="Group 16065" xmlns="http://www.w3.org/2000/svg" width="17.784" height="17.784" viewBox="0 0 17.784 17.784">
  <circle id="Ellipse_2" data-name="Ellipse 2" cx="8.892" cy="8.892" r="8.892" fill="#e9e8ff"/>
  <g id="XMLID_834_" transform="translate(6.669 5.037)">
    <path id="XMLID_835_" d="M76.909,6.789h1.4v5.752a.206.206,0,0,0,.206.206H80.88a.206.206,0,0,0,.206-.206V6.816h1.606a.206.206,0,0,0,.2-.182l.244-2.118a.206.206,0,0,0-.2-.229h-1.85V2.96c0-.4.215-.6.64-.6h1.21a.206.206,0,0,0,.206-.206V.207A.206.206,0,0,0,82.936,0H81.269l-.076,0A3.2,3.2,0,0,0,79.1.787a2.191,2.191,0,0,0-.728,1.947V4.287H76.909a.206.206,0,0,0-.206.206V6.583A.206.206,0,0,0,76.909,6.789Z" transform="translate(-76.703)" fill="#0b1141"/>
  </g>
</svg>
