<svg xmlns="http://www.w3.org/2000/svg" width="136.735" height="20.236" viewBox="0 0 136.735 20.236">
  <g id="sp-client-Norwegian" transform="translate(-40 -94.2)">
    <g id="Group_16207" data-name="Group 16207" transform="translate(40 94.2)">
      <path id="Subtraction_2" data-name="Subtraction 2" d="M-4483.871-747.4a9.557,9.557,0,0,1-1.539-.125,18.243,18.243,0,0,1-3.868-1.226,12.151,12.151,0,0,0-4.933-1.195c-.25,0-.51.009-.77.028a9.466,9.466,0,0,0-4.9,2.108V-767.24h23.074v16.408a.814.814,0,0,1-.114.4A9.5,9.5,0,0,1-4483.871-747.4Zm-9.9-4.65a14.237,14.237,0,0,1,4.677.879,22.659,22.659,0,0,0,3.625.912,11.9,11.9,0,0,0,1.782.146,7.006,7.006,0,0,0,4.029-1.171,4.493,4.493,0,0,0,.854-.57c.342-.285.342-.4.342-.627a.038.038,0,0,0-.042-.042.331.331,0,0,0-.128.042l-.286.172a6.544,6.544,0,0,1-3.855,1.117,21.4,21.4,0,0,1-6.286-1.345,11.8,11.8,0,0,0-3.684-.565,9.008,9.008,0,0,0-4.976,1.248.967.967,0,0,0-.341.342.373.373,0,0,0-.082.293.08.08,0,0,0,.082.049.443.443,0,0,0,.2-.077,1.158,1.158,0,0,1,.2-.095,6.52,6.52,0,0,1,2.8-.691c.092,0,.186,0,.277.007C-4494.3-752.045-4494.03-752.053-4493.768-752.053Zm6.308-11.313a3.391,3.391,0,0,0-2.453,1.035,3.409,3.409,0,0,0-.965,2.5v.114a3.5,3.5,0,0,0,3.43,3.42h.1a3.355,3.355,0,0,0,2.734-1.254l-.968-.968a2.448,2.448,0,0,1-1.766.8h-.057a1.933,1.933,0,0,1-1.334-.659,2.108,2.108,0,0,1-.546-1.506v-.057A2.076,2.076,0,0,1-4487.29-762a2.488,2.488,0,0,1,1.767.741l.969-1.082a3.755,3.755,0,0,0-2.54-1.031c-.064,0-.13,0-.2.006Zm-9,2.564,0,0,3.3,4.384h1.253v-6.837h-1.48v4.217l-3.19-4.217h-1.369v6.837h1.481V-760.8Zm12.876-2.451v6.837h4.957v-1.367h-3.418v-5.47Z" transform="translate(4499.88 767.639)" fill="#cecfd9"/>
      <path id="Path_3467" data-name="Path 3467" d="M97.092,105.212,92.022,98.66v6.552H89.8V94.9h2.108l4.843,6.324V94.9H99.03v10.312Z" transform="translate(-61.428 -94.501)" fill="#cecfd9"/>
      <path id="Path_3468" data-name="Path 3468" d="M117.569,105.082a5.292,5.292,0,0,1-5.469-5.128v-.228h0a5.526,5.526,0,0,1,11.053,0h0a5.265,5.265,0,0,1-5.355,5.3A.431.431,0,0,1,117.569,105.082Zm3.133-5.355a3.173,3.173,0,0,0-3.077-3.247h-.114a3.064,3.064,0,0,0-3.077,3.077v.171h0a3.173,3.173,0,0,0,3.077,3.247h.114A3.064,3.064,0,0,0,120.7,99.9Z" transform="translate(-71.023 -94.2)" fill="#cecfd9"/>
      <path id="Path_3469" data-name="Path 3469" d="M143.367,105.212l-2.222-3.3h-1.766v3.3H137.1V94.9h4.729c2.393,0,3.874,1.31,3.874,3.418h0a3.154,3.154,0,0,1-2.222,3.19l2.507,3.7Zm.057-6.837c0-1.026-.627-1.481-1.766-1.481h-2.279v2.963h2.336a1.451,1.451,0,0,0,1.709-1.481Z" transform="translate(-81.78 -94.501)" fill="#cecfd9"/>
      <path id="Path_3470" data-name="Path 3470" d="M168.878,105.183h-1.937l-2.336-6.78-2.336,6.78h-1.937L156.8,94.757h2.393l2.165,7.008,2.336-7.065h1.937l2.336,7.065,2.165-7.008h2.393Z" transform="translate(-90.256 -94.415)" fill="#cecfd9"/>
      <path id="Path_3471" data-name="Path 3471" d="M189,105.212V94.9h7.862v2.051h-5.583v2.108h4.9v2.051h-4.9v2.165h5.64v2.051L189,105.212Z" transform="translate(-104.111 -94.501)" fill="#cecfd9"/>
      <path id="Path_3472" data-name="Path 3472" d="M212.912,105.242a5.174,5.174,0,0,1-5.412-4.957v-.342h0a5.326,5.326,0,0,1,5.241-5.355h.171a5.3,5.3,0,0,1,4.045,1.424l-1.424,1.709A3.98,3.98,0,0,0,212.8,96.7a3.079,3.079,0,0,0-2.963,3.247h0a3.113,3.113,0,0,0,2.963,3.247h.228a4.012,4.012,0,0,0,2.165-.627v-1.481h-2.336V99.146H217.3v4.5A7.136,7.136,0,0,1,212.912,105.242Z" transform="translate(-112.071 -94.36)" fill="#cecfd9"/>
      <path id="Path_3473" data-name="Path 3473" d="M231,105.212V94.9h2.279v10.312Z" transform="translate(-122.182 -94.501)" fill="#cecfd9"/>
      <path id="Path_3474" data-name="Path 3474" d="M248.4,105.126l-1.139-2.336H243.1l-.969,2.336H239.8L244.244,94.7h2.108l4.387,10.426Zm-3.133-7.634-1.367,3.361h2.735Z" transform="translate(-125.969 -94.415)" fill="#cecfd9"/>
      <path id="Path_3475" data-name="Path 3475" d="M271.092,105.212l-5.014-6.552v6.552H263.8V94.9h2.108l4.843,6.324V94.9h2.279v10.312Z" transform="translate(-136.295 -94.501)" fill="#cecfd9"/>
      <path id="Path_3476" data-name="Path 3476" d="M92.478,124.651a2.613,2.613,0,0,1-2.678-2.564v-.114h0a2.616,2.616,0,0,1,2.564-2.678h.114a2.663,2.663,0,0,1,2.051.8l-.741.855a1.855,1.855,0,0,0-1.31-.57,1.581,1.581,0,0,0-1.538,1.6v.057h0a1.537,1.537,0,0,0,1.424,1.652h.057a1.82,1.82,0,0,0,1.367-.627l.741.741A2.45,2.45,0,0,1,92.478,124.651Z" transform="translate(-61.428 -104.995)" fill="#cecfd9"/>
      <path id="Path_3477" data-name="Path 3477" d="M104.233,124.585l-1.082-1.652h-.912v1.652H101.1V119.4h2.393c1.2,0,1.937.627,1.937,1.709h0a1.544,1.544,0,0,1-1.082,1.6l1.31,1.823Zm0-3.361c0-.456-.342-.741-.912-.741h-1.082v1.481h1.139c.57,0,.855-.285.855-.741Z" transform="translate(-66.29 -105.043)" fill="#cecfd9"/>
      <path id="Path_3478" data-name="Path 3478" d="M113.879,124.7a2.113,2.113,0,0,1-2.279-2.336V119.4h1.139v2.963c0,.855.4,1.31,1.082,1.31s1.082-.4,1.082-1.253v-2.963h1.139v2.963A1.965,1.965,0,0,1,113.879,124.7Z" transform="translate(-70.808 -105.043)" fill="#cecfd9"/>
      <path id="Path_3479" data-name="Path 3479" d="M123,124.585V119.4h1.139v5.185Z" transform="translate(-75.713 -105.043)" fill="#cecfd9"/>
      <path id="Path_3480" data-name="Path 3480" d="M130.122,124.7a3.6,3.6,0,0,1-2.222-.855l.627-.8a2.2,2.2,0,0,0,1.538.627c.456,0,.741-.171.741-.456h0c0-.285-.171-.4-1.026-.627-1.025-.285-1.709-.57-1.709-1.6h0a1.624,1.624,0,0,1,1.823-1.6,3.411,3.411,0,0,1,1.937.627l-.57.855a2.235,2.235,0,0,0-1.367-.513c-.4,0-.627.228-.627.456h0c0,.342.228.456,1.082.627,1.026.285,1.652.627,1.652,1.6h0A1.653,1.653,0,0,1,130.122,124.7Z" transform="translate(-77.821 -105.043)" fill="#cecfd9"/>
      <path id="Path_3481" data-name="Path 3481" d="M138.1,124.585V119.4h3.874v1.025h-2.792v1.026h2.393v1.026h-2.393v1.082h2.792v1.026Z" transform="translate(-82.21 -105.043)" fill="#cecfd9"/>
      <path id="Path_3482" data-name="Path 3482" d="M153.4,124.585V119.4h1.139v4.159h2.621v1.026Z" transform="translate(-88.793 -105.043)" fill="#cecfd9"/>
      <path id="Path_3483" data-name="Path 3483" d="M162.8,124.585V119.4h1.139v5.185Z" transform="translate(-92.838 -105.043)" fill="#cecfd9"/>
      <path id="Path_3484" data-name="Path 3484" d="M171.989,124.585l-2.507-3.247v3.247H168.4V119.4h1.026l2.393,3.19V119.4H172.9v5.185Z" transform="translate(-95.247 -105.043)" fill="#cecfd9"/>
      <path id="Path_3485" data-name="Path 3485" d="M179.8,124.585V119.4h3.874v1.025h-2.792v1.026h2.393v1.026h-2.393v1.082h2.792v1.026Z" transform="translate(-100.152 -105.043)" fill="#cecfd9"/>
    </g>
  </g>
</svg>
