<svg xmlns="http://www.w3.org/2000/svg" width="99.11" height="19.739" viewBox="0 0 99.11 19.739">
  <g id="Group_144" data-name="Group 144" transform="translate(-40 -81.1)">
    <path id="Subtraction_1" data-name="Subtraction 1" d="M-4216.89-841.146a6.47,6.47,0,0,1-6.442-6.484,6.429,6.429,0,0,1,6.442-6.4,6.449,6.449,0,0,1,6.442,6.442,6.409,6.409,0,0,1-1.874,4.553A6.4,6.4,0,0,1-4216.89-841.146Zm.371-3.221a2.145,2.145,0,0,0,.308.021,3.015,3.015,0,0,0,1.345-.352,1.8,1.8,0,0,0,.785-1.4,1.648,1.648,0,0,0-1.322-1.61,1.452,1.452,0,0,0,1.2-1.4,1.622,1.622,0,0,0-.784-1.4,2.264,2.264,0,0,0-1.092-.278,2.615,2.615,0,0,0-.4.031l-2.932-.041v6.442Zm-.191-1.187a.839.839,0,0,1-.138-.011h-1.032l-.042-1.57h1.115a.856.856,0,0,1,.14-.011,1.722,1.722,0,0,1,.6.135.776.776,0,0,1,.372.62.86.86,0,0,1-.331.66A1.628,1.628,0,0,1-4216.71-845.554Zm.018-2.721a1.2,1.2,0,0,1-.2-.016h-1.033v-1.362h.909a1.647,1.647,0,0,1,.232-.016,2.3,2.3,0,0,1,.635.1.549.549,0,0,1,.29.578.923.923,0,0,1-.248.578A1.2,1.2,0,0,1-4216.692-848.275Z" transform="translate(4263.332 935.13)" fill="#cecfd9"/>
    <path id="Path_797" data-name="Path 797" d="M155.425,104.823h3.469V88.594h-3.469Zm-5.2,0h3.51V88.594h-3.51v16.229Zm-9.333-7.475c.124-1.363.743-2.519,2.23-2.519s1.941,1.239,2.024,2.519Zm7.764,2.065a7.57,7.57,0,0,0-1.239-4.708,5.657,5.657,0,0,0-4.419-2.147c-3.717,0-5.864,2.849-5.864,6.442s2.354,6.112,5.947,6.112a5.484,5.484,0,0,0,5.492-4.171l-3.221-.248a2.061,2.061,0,0,1-2.147,1.9,2.336,2.336,0,0,1-2.313-2.6v-.619h7.764Zm-16.271.413a4.232,4.232,0,0,1-.289,1.776,1.816,1.816,0,0,1-1.528.991c-1.734,0-1.9-2.23-1.9-3.51,0-1.445.083-4.047,2.065-4.047,1.611,0,1.693,1.982,1.693,3.18C132.382,98.174,132.382,99.826,132.382,99.826Zm3.469,5V88.594h-3.469v5.492a3.267,3.267,0,0,0-3.015-1.528c-3.51,0-4.419,3.551-4.419,6.4s.95,6.153,4.336,6.153a3.483,3.483,0,0,0,3.221-2.106h.041v1.9Zm-15.775-5.245a4.1,4.1,0,0,1-.454,2.313,2.027,2.027,0,0,1-1.734.991,1.532,1.532,0,0,1-1.569-1.363v-.248c0-1.734,2.436-2.065,3.758-2.23v.537Zm3.8,5.245a5.277,5.277,0,0,1-.248-1.776V97.431c0-1.445.124-2.767-1.115-3.758a6.6,6.6,0,0,0-3.8-1.115c-2.56,0-5.368.826-5.74,3.758l3.3.289c0-1.2.991-1.734,2.106-1.734a1.755,1.755,0,0,1,1.4.578,2.69,2.69,0,0,1,.289,1.611v.248a22.35,22.35,0,0,0-4.749.743,3.717,3.717,0,0,0-2.726,3.593c0,2.271,1.693,3.428,3.758,3.428a4.324,4.324,0,0,0,3.841-2.106,7.4,7.4,0,0,0,.165,1.9Zm-23,0h1.9a6.142,6.142,0,0,1,.785-1.858,3.554,3.554,0,0,0,3.428,2.106c3.634,0,4.873-3.1,4.873-6.236,0-2.808-1.032-6.236-4.5-6.236a3.047,3.047,0,0,0-2.932,1.734h-.041v-5.74h-3.469l-.041,16.229Zm3.551-6.773c0-1.28.248-3.1,1.9-3.1,1.9,0,1.9,2.519,1.9,3.841,0,1.363,0,3.8-1.982,3.8a1.649,1.649,0,0,1-1.487-.826,4.243,4.243,0,0,1-.413-2.023l.083-1.693Zm-9,1.487a4.1,4.1,0,0,1-.454,2.313,2.027,2.027,0,0,1-1.734.991,1.466,1.466,0,0,1-1.528-1.363v-.248c0-1.734,2.436-2.065,3.758-2.23l-.041.537Zm3.758,5.286a5.278,5.278,0,0,1-.248-1.776V97.431c0-1.445.124-2.767-1.115-3.758a6.6,6.6,0,0,0-3.8-1.115c-2.56,0-5.368.826-5.74,3.758l3.3.289c0-1.2.991-1.734,2.106-1.734a1.755,1.755,0,0,1,1.4.578,2.69,2.69,0,0,1,.289,1.611v.248a22.35,22.35,0,0,0-4.749.743,3.717,3.717,0,0,0-2.726,3.593c0,2.271,1.652,3.428,3.758,3.428a4.324,4.324,0,0,0,3.841-2.106,7.4,7.4,0,0,0,.165,1.9ZM86.626,92.187c-.991-2.808-3.3-3.8-6.194-3.8a6.086,6.086,0,0,0-4.088,1.321,4.676,4.676,0,0,0-1.734,3.8c0,3.551,2.808,4.419,5.74,5,.991.248,2.808.454,2.808,1.817s-1.445,1.734-2.56,1.734c-1.693,0-2.932-.619-3.386-2.271l-3.51.785c.743,3.18,3.51,4.5,6.566,4.5a7.486,7.486,0,0,0,4.708-1.321A5.267,5.267,0,0,0,87,99.661a4.449,4.449,0,0,0-2.147-3.841,12.915,12.915,0,0,0-4.212-1.363c-.95-.165-2.354-.454-2.354-1.652s1.239-1.528,2.23-1.528a2.545,2.545,0,0,1,2.767,1.9l3.345-.991Z" transform="translate(-19.783 -4.273)" fill="#cecfd9"/>
  </g>
</svg>
