<svg xmlns="http://www.w3.org/2000/svg" width="165.164" height="16.079" viewBox="0 0 165.164 16.079">
  <path id="_603565f6ae98407682d53211_Slice_1" data-name="603565f6ae98407682d53211_Slice 1" d="M11.841,11.535a5.9,5.9,0,0,0-2.433.768A6.28,6.28,0,0,0,11.841,11.535ZM69.177,2.823c3.71.007,7.386-.263,11.08-.382,5.3-.171,10.594-.356,15.913-.271,3.268.053,6.532-.094,9.815.01,7.657.244,15.321.375,22.958.829,6.13.365,12.267.687,18.38,1.14,5.417.4,10.741,1.055,16.084,1.66a5.187,5.187,0,0,1,2.016.53c-.269.366-.93-.079-1.179.24.4.247,1.75.044,1.367.534a3.021,3.021,0,0,1-2.325.712c-1.6-.036-3-.437-4.551-.554-6.876-.522-13.719-1.153-20.652-1.457-4.265-.187-8.529-.471-12.8-.445-2.367.014-4.661-.36-7.019-.209a3.555,3.555,0,0,0-1.717.2c-.2.118-1.1.343-1.231-.232-.027-.121-.44-.069-.7-.07-2.777-.018-5.6-.214-8.321-.023-2.653.187-5.284.063-7.921.172-1.863.076-3.726-.341-5.656-.191a15.81,15.81,0,0,0-2.385.2L89.432,5.2a31.221,31.221,0,0,0-6.115.177,33.415,33.415,0,0,0-6.4.239,31.423,31.423,0,0,0-6.783.428,27.015,27.015,0,0,1-3.028.245c-3.435.317-6.862.655-10.3.967a4.251,4.251,0,0,1-1.945-.006,23.425,23.425,0,0,0-5.2.514,46.447,46.447,0,0,1-5.239.556,39.086,39.086,0,0,0-6.52,1.018c-1.719.475-3.769.491-5.64.821A109.965,109.965,0,0,0,20.228,12.6c-4.044,1.21-8.581,1.809-12.447,3.187A18.926,18.926,0,0,1,4.83,16.859a5.42,5.42,0,0,1-3.9-.726c-.634-.579-.563-1.213.429-1.746a38.848,38.848,0,0,1,5.626-2.364A170.522,170.522,0,0,1,34.754,5.4c9.519-1.57,19.232-2.679,29.092-3.414,5.018-.374,10.07-.53,15.116-.742,5.192-.218,10.382-.4,15.586-.383,4.635.012,9.267.122,13.9.22,5.424.115,10.839.269,16.231.548C137.611,2.3,150.517,3.1,163.11,4.928c.848.123,1.92-.02,2.549.546a6.072,6.072,0,0,1-2.71.041c-6.482-.9-13.056-1.51-19.677-2.047-9.759-.792-19.594-1.073-29.405-1.507-4.745-.21-9.532-.131-14.3-.232-6.25-.133-12.49.016-18.723.181-3.728.1-7.47.265-11.146.679-.267.03-.5.077-.513.252A4.625,4.625,0,0,0,67.1,2.8c-5.368.34-10.695.821-16.007,1.359-3.334.338-6.615.8-9.932,1.178-3.491.4-6.9,1.038-10.267,1.688-.954.184-2.313.09-2.841.776a8.209,8.209,0,0,0-3.894.747,20.238,20.238,0,0,0,3.877-.771c.351-.032.718-.037,1.051-.1,9.834-1.82,19.907-3.119,30.165-4.011C62.557,3.378,65.868,3.1,69.177,2.823Z" transform="translate(-0.516 -0.866)" fill="#e8ca00" fill-rule="evenodd"/>
</svg>
