<svg xmlns="http://www.w3.org/2000/svg" xmlns:xlink="http://www.w3.org/1999/xlink" width="100.36" height="18" viewBox="0 0 100.36 18">
  <defs>
    <clipPath id="clip-path">
      <rect id="Rectangle_46" data-name="Rectangle 46" width="100.36" height="18" transform="translate(14 7)" fill="#fff"/>
    </clipPath>
  </defs>
  <g id="ms-sony-contained" transform="translate(-14 -7)" clip-path="url(#clip-path)">
    <path id="Path_437" data-name="Path 437" d="M49.812,24.8a13.857,13.857,0,0,1-9.226-3.1,7.568,7.568,0,0,1-2.51-5.715,7.681,7.681,0,0,1,2.509-5.7C42.669,8.39,46.348,7.2,49.812,7.2c3.833,0,6.9.965,9.246,3.094a7.6,7.6,0,0,1,2.475,5.69A7.925,7.925,0,0,1,59.058,21.7c-2.184,2.027-5.616,3.1-9.246,3.1V22.478a6.957,6.957,0,0,0,4.95-1.9,6.155,6.155,0,0,0,1.813-4.591,6.389,6.389,0,0,0-1.812-4.6,7.435,7.435,0,0,0-9.908,0,6.419,6.419,0,0,0-1.808,4.6,6.432,6.432,0,0,0,1.808,4.591,7.04,7.04,0,0,0,4.958,1.9V24.8ZM23.346,7.209a15.185,15.185,0,0,0-6.007,1.2c-1.726.77-3.138,2.015-3.138,4.08A4.236,4.236,0,0,0,15.349,15.4a6.4,6.4,0,0,0,3.427,1.713c.945.207,2.967.524,4.979.735s3.964.411,4.765.614c.636.162,1.705.383,1.705,1.582A1.792,1.792,0,0,1,28.9,21.685a9.935,9.935,0,0,1-3.975.7,16.857,16.857,0,0,1-4.734-.82,5.711,5.711,0,0,1-2.742-1.831,3.149,3.149,0,0,1-.568-1.737h-2.2v6.158h2.443V23.32a.349.349,0,0,1,.528-.3,19.279,19.279,0,0,0,3.574,1.155,15.268,15.268,0,0,0,3.708.461,15.9,15.9,0,0,0,4.971-.7,8.7,8.7,0,0,0,2.952-1.459,4.044,4.044,0,0,0,1.582-3.241,4.535,4.535,0,0,0-1.278-3.187,5.58,5.58,0,0,0-1.583-1.075,11.625,11.625,0,0,0-1.944-.679c-1.259-.309-4.106-.69-5.468-.833a37.843,37.843,0,0,1-4.894-.66,1.179,1.179,0,0,1-.911-1.094,1.506,1.506,0,0,1,.832-1.279,9.58,9.58,0,0,1,4.5-.891,13.026,13.026,0,0,1,5.209,1.017,5.726,5.726,0,0,1,1.24.739,3.728,3.728,0,0,1,1.221,2.044H33.34V7.977h-2.2V8.6c0,.2-.208.462-.6.246a16.735,16.735,0,0,0-7.191-1.638Zm48.28.974,10.747,9.7-.11-6.53c-.011-.856-.169-1.214-1.095-1.214H79.147V8.185h9.189v1.953H86.365c-.945,0-1,.3-1.016,1.214l.167,12.477H82.369L69.991,12.782l0,7.84c.011.852.051,1.254.929,1.254h2.207v1.953H64.1V21.876h2.11c.788,0,.757-.751.757-1.3V11.426c0-.591-.083-1.287-1.32-1.287H63.939V8.183ZM98.837,21.872a4.233,4.233,0,0,0,.544-.034.674.674,0,0,0,.423-.375,2.179,2.179,0,0,0,.042-.423l0-3.087c0-.074-.005-.106-.132-.272-.139-.181-5.629-6.4-5.881-6.677a2.3,2.3,0,0,0-1.693-.866h-1.91V8.184h10.776v1.952h-1.3c-.3,0-.5.285-.243.6,0,0,3.626,4.337,3.66,4.382s.063.057.109.015,3.717-4.358,3.746-4.392a.376.376,0,0,0-.321-.605h-1.332V8.184h8.831v1.954h-1.973a1.68,1.68,0,0,0-1.545.741c-.246.279-5.8,6.613-5.947,6.784a.417.417,0,0,0-.072.289v3.087a2.181,2.181,0,0,0,.042.422.673.673,0,0,0,.424.375,4.106,4.106,0,0,0,.538.034h2.018v1.954H96.924V21.871l1.913,0Z" fill="#cecfd9"/>
  </g>
</svg>
